<svg width="343" height="282" viewBox="0 0 343 282" fill="none" xmlns="http://www.w3.org/2000/svg">
<path d="M113.14 215.35C112.14 217.18 107.54 219.52 102.94 220.82C105.29 219.09 111.35 213.55 112.03 212.87C108.4 212.16 101.96 213.5 97.15 213.5C84.92 213.5 75 216.19 75 219.5C75 222.81 84.92 225.5 97.15 225.5C109.38 225.5 119.3 222.8 119.3 219.5C119.3 217.89 116.95 216.42 113.14 215.34" fill="white"/>
<path d="M188 169.26C184.115 174.505 178.537 178.247 172.211 179.854C165.885 181.461 159.198 180.835 153.28 178.08C157.169 172.84 162.746 169.101 169.071 167.494C175.396 165.887 182.081 166.511 188 169.26Z" fill="#31AC65"/>
<path d="M215.57 223L195 217V5.56999L215.14 0.299988L230.92 3.24V212.09L215.57 223ZM198.84 214.13L214.84 218.8L227.06 210.14V6.42999L215.26 4.22999L198.82 8.52999L198.84 214.13Z" fill="white"/>
<path d="M215.21 222.77C214.958 222.771 214.709 222.723 214.476 222.628C214.243 222.532 214.031 222.392 213.853 222.214C213.675 222.037 213.533 221.826 213.436 221.593C213.34 221.361 213.29 221.112 213.29 220.86V2.26002C213.29 1.75081 213.492 1.26246 213.852 0.902387C214.212 0.542317 214.701 0.340027 215.21 0.340027C215.719 0.340027 216.208 0.542317 216.568 0.902387C216.928 1.26246 217.13 1.75081 217.13 2.26002V220.86C217.13 221.112 217.08 221.361 216.984 221.593C216.887 221.826 216.745 222.037 216.567 222.214C216.389 222.392 216.177 222.532 215.944 222.628C215.711 222.723 215.462 222.771 215.21 222.77Z" fill="white"/>
<path d="M100.8 222.11C100.413 222.113 100.034 221.997 99.713 221.779C99.393 221.561 99.146 221.251 99.006 220.89C98.866 220.529 98.84 220.133 98.93 219.757C99.02 219.38 99.222 219.039 99.51 218.78C132.81 188.61 194.78 132.45 184.68 2.40998C184.64 1.90209 184.804 1.3992 185.135 1.01194C185.466 0.624684 185.937 0.384764 186.445 0.344984C186.953 0.305194 187.456 0.468794 187.843 0.799804C188.23 1.1308 188.47 1.60209 188.51 2.10998C198.75 134 135.87 191 102.09 221.62C101.735 221.937 101.276 222.111 100.8 222.11Z" fill="white"/>
<path d="M179.74 100.26H179.58C179.074 100.219 178.605 99.979 178.275 99.593C177.945 99.207 177.781 98.706 177.82 98.2C177.82 97.94 179.75 71.82 168.59 59.64C168.272 59.2608 168.114 58.7737 168.146 58.2802C168.179 57.7867 168.401 57.3249 168.766 56.991C169.131 56.6571 169.61 56.4769 170.105 56.4879C170.599 56.4988 171.07 56.7002 171.42 57.05C183.71 70.46 181.74 97.36 181.65 98.5C181.61 98.979 181.391 99.426 181.038 99.752C180.684 100.078 180.221 100.259 179.74 100.26Z" fill="white"/>
<path d="M163.89 187.76C159.055 187.763 154.29 186.6 150 184.37L148.29 183.49L149.18 181.78C151.009 178.248 153.516 175.112 156.558 172.55C159.6 169.988 163.117 168.051 166.909 166.85C170.7 165.649 174.691 165.208 178.653 165.551C182.616 165.894 186.471 167.015 190 168.85L191.71 169.73L190.82 171.44C188.26 176.369 184.394 180.499 179.644 183.377C174.894 186.256 169.444 187.772 163.89 187.76ZM153.58 181.81C159.395 184.282 165.903 184.591 171.926 182.682C177.95 180.772 183.091 176.77 186.42 171.4C180.605 168.928 174.097 168.619 168.074 170.528C162.05 172.438 156.909 176.44 153.58 181.81Z" fill="white"/>
<path d="M142.32 97.48C140.63 103.783 141.167 110.477 143.842 116.429C146.517 122.382 151.165 127.228 157 130.15C158.686 123.847 158.147 117.155 155.473 111.203C152.798 105.252 148.153 100.405 142.32 97.48Z" fill="#31AC65"/>
<path d="M155.72 137L153.96 136.22C146.642 132.928 140.93 126.868 138.076 119.368C135.223 111.869 135.462 103.544 138.74 96.22L139.52 94.47L141.27 95.26C144.899 96.884 148.172 99.207 150.901 102.097C153.631 104.987 155.764 108.387 157.179 112.102C158.594 115.817 159.262 119.775 159.145 123.749C159.029 127.722 158.13 131.634 156.5 135.26L155.72 137ZM141.49 99.6C139.354 105.546 139.416 112.059 141.665 117.963C143.913 123.867 148.2 128.772 153.75 131.79C155.89 125.845 155.83 119.33 153.581 113.425C151.332 107.52 147.043 102.615 141.49 99.6Z" fill="white"/>
<path d="M332 248.24H329.27V256.79H328V248.24H325.27V247.1H332V248.24ZM343 256.79H341.76V248.79L338.46 256.79H338.11L334.8 248.79V256.79H333.57V247.1H335.47L338.28 254.1L341.1 247.1H343V256.79Z" fill="#31AC65"/>
<path d="M26.78 280.55H21.64L19.75 275.61H7.99997L6.09997 280.55H0.969971L11 254.81H16.64L26.78 280.55ZM18.48 271.64L13.85 259.37L9.21997 271.64H18.48Z" fill="#31AC65"/>
<path d="M56.34 280.55H51.82V261.45L43.91 280.55H41.98L34.11 261.45V280.55H29.59V254.81H35.96L42.95 271.75L49.97 254.81H56.34V280.55Z" fill="#31AC65"/>
<path d="M85 280.55H79.87L78 275.61H66.14L64.25 280.55H59.11L69.23 254.81H74.86L85 280.55ZM76.7 271.64L72 259.37L67.37 271.64H76.7Z" fill="#31AC65"/>
<path d="M110.09 280.55H105.73L92.3 262.18V280.55H87.79V254.81H92.42L105.58 272.68V254.81H110.09V280.55Z" fill="#31AC65"/>
<path d="M120 281C118.735 281.059 117.472 280.849 116.295 280.384C115.118 279.918 114.052 279.208 113.17 278.3L115.25 274.87C115.791 275.516 116.463 276.038 117.222 276.404C117.98 276.77 118.808 276.969 119.65 276.99C120.258 277.022 120.867 276.925 121.435 276.706C122.004 276.487 122.52 276.151 122.95 275.72C123.791 274.793 124.23 273.57 124.17 272.32V254.81H128.68V272.41C128.68 275.24 127.89 277.41 126.29 278.83C124.551 280.336 122.298 281.113 120 281Z" fill="#31AC65"/>
<path d="M165.7 280.55H163.15L160.6 274.22H147L144.46 280.55H141.91L152.44 254.81H155.18L165.7 280.55ZM159.87 272.22L153.77 257.17L147.77 272.22H159.87Z" fill="white"/>
<path d="M180.05 281C178.328 281.044 176.616 280.737 175.017 280.097C173.418 279.458 171.966 278.499 170.75 277.28C168.346 274.665 167.012 271.242 167.012 267.69C167.012 264.138 168.346 260.715 170.75 258.1C171.966 256.881 173.418 255.922 175.017 255.283C176.616 254.643 178.328 254.336 180.05 254.38C181.861 254.348 183.654 254.743 185.284 255.533C186.914 256.324 188.334 257.488 189.43 258.93L187.58 260.13C186.731 258.979 185.621 258.046 184.34 257.41C183.01 256.74 181.539 256.397 180.05 256.41C178.624 256.375 177.207 256.639 175.889 257.185C174.572 257.731 173.383 258.547 172.4 259.58C170.422 261.826 169.33 264.717 169.33 267.71C169.33 270.703 170.422 273.594 172.4 275.84C173.379 276.88 174.566 277.702 175.885 278.251C177.203 278.801 178.622 279.066 180.05 279.03C181.539 279.043 183.01 278.7 184.34 278.03C185.619 277.391 186.729 276.459 187.58 275.31L189.43 276.46C188.337 277.909 186.919 279.079 185.289 279.877C183.659 280.674 181.864 281.076 180.05 281.05" fill="white"/>
<path d="M215 280.55H212.45L209.9 274.22H196.3L193.75 280.55H191.21L201.74 254.81H204.48L215 280.55ZM209.17 272.22L203.07 257.17L197 272.22H209.17Z" fill="white"/>
<path d="M227 280.55H218.8V254.81H227C228.742 254.738 230.48 255.033 232.101 255.676C233.722 256.318 235.19 257.294 236.41 258.54C238.256 260.351 239.513 262.677 240.015 265.213C240.517 267.75 240.242 270.379 239.225 272.756C238.208 275.134 236.497 277.149 234.315 278.538C232.134 279.927 229.584 280.624 227 280.54V280.55ZM227 278.54C228.447 278.613 229.893 278.375 231.24 277.842C232.587 277.309 233.805 276.493 234.81 275.45C236.662 273.287 237.68 270.533 237.68 267.685C237.68 264.837 236.662 262.083 234.81 259.92C233.807 258.867 232.588 258.044 231.236 257.507C229.884 256.97 228.432 256.732 226.98 256.81H220.98V278.54H227Z" fill="white"/>
<path d="M261.83 280.55H245.5V254.81H261.83V256.82H247.7V266.35H261.56V268.36H247.7V278.55H261.83V280.55Z" fill="white"/>
<path d="M291.35 280.55H289.11V257.82L279.73 280.55H278.88L269.47 257.82V280.55H267.27V254.81H270.55L279.31 276.04L288.03 254.81H291.35V280.55Z" fill="white"/>
<path d="M307.59 280.55H305.36V269.55L295.13 254.81H297.79L306.47 267.47L315.16 254.81H317.82L307.59 269.55V280.55Z" fill="white"/>
</svg>
