<svg width="20" height="20" viewBox="0 0 20 20" fill="none" xmlns="http://www.w3.org/2000/svg">
<g id="customer-service-fill">
<path id="Vector" d="M18.3333 14.1686C18.3325 16.561 16.6513 18.5606 14.406 19.0514L13.8743 17.4564C14.8776 17.2927 15.7304 16.681 16.2207 15.8334H14.1666C13.2461 15.8334 12.5 15.0872 12.5 14.1667V10.8334C12.5 9.91292 13.2461 9.16675 14.1666 9.16675H16.615C16.205 5.87816 13.3996 3.33341 9.99996 3.33341C6.60028 3.33341 3.79495 5.87816 3.38487 9.16675H5.83329C6.75377 9.16675 7.49996 9.91292 7.49996 10.8334V14.1667C7.49996 15.0872 6.75377 15.8334 5.83329 15.8334H3.33329C2.41282 15.8334 1.66663 15.0872 1.66663 14.1667V10.0001C1.66663 5.39771 5.39758 1.66675 9.99996 1.66675C14.6023 1.66675 18.3333 5.39771 18.3333 10.0001V10.8323V10.8334V14.1667V14.1686Z" fill="#F47866"/>
</g>
</svg>
