<svg width="20" height="20" viewBox="0 0 20 20" fill="none" xmlns="http://www.w3.org/2000/svg">
<g id="draft-fill">
<path id="Vector" d="M16.6667 1.66663C17.1269 1.66663 17.5 2.03973 17.5 2.49996V5.63079L10.001 13.1301L9.99583 16.6625L13.5345 16.6676L17.5 12.7016V17.5C17.5 17.9602 17.1269 18.3333 16.6667 18.3333H3.33333C2.8731 18.3333 2.5 17.9602 2.5 17.5V2.49996C2.5 2.03973 2.8731 1.66663 3.33333 1.66663H16.6667ZM18.1485 7.33963L19.327 8.51813L12.8452 15L11.6649 14.9982L11.6667 13.8215L18.1485 7.33963ZM10 9.99996H5.83333V11.6666H10V9.99996ZM12.5 6.66663H5.83333V8.33329H12.5V6.66663Z" fill="#F47866"/>
</g>
</svg>
