<svg width="104" height="60" viewBox="0 0 104 60" fill="none" xmlns="http://www.w3.org/2000/svg">
<g id="logo2_stroke&#217;&#128;_light_FA 1">
<g id="Group">
<g id="Group_2">
<g id="Group_3">
<path id="Vector" d="M14.6086 56.7523C13.9615 57.1756 13.1526 57.8527 11.9566 58.1945C12.5672 57.7393 13.571 56.72 13.7473 56.5406C12.8036 56.3538 11.7014 56.2619 10.452 56.2619C7.27278 56.2619 4.69589 56.9723 4.69589 57.8488C4.69589 58.7254 7.27326 59.4358 10.452 59.4358C13.6307 59.4358 16.2081 58.7254 16.2081 57.8488C16.2076 57.4235 15.5986 57.0373 14.6086 56.7523Z" fill="#D1D3D4"/>
</g>
<g id="Group_4">
<path id="Vector_2" d="M34.0715 44.5901C32.0199 47.41 28.2475 48.4304 25.0476 46.9163C27.0992 44.0983 30.8716 43.0756 34.0715 44.5901Z" fill="#30AB65"/>
</g>
<g id="Group_5">
<path id="Vector_3" d="M41.2264 58.7591L35.8829 57.179V1.39388L41.1166 0.00250244L45.2159 0.779348V55.8903L41.2264 58.7591ZM36.88 56.4188L41.0434 57.6503L44.2192 55.3667V1.61975L41.1536 1.03895L36.8805 2.17561V56.4188H36.88Z" fill="#D1D3D4"/>
</g>
<g id="Group_6">
<path id="Vector_4" d="M41.1349 58.7107C40.8595 58.7107 40.6365 58.4844 40.6365 58.2047V0.52071C40.6365 0.241065 40.8595 0.0147095 41.1349 0.0147095C41.4103 0.0147095 41.6332 0.241065 41.6332 0.52071V58.2047C41.6332 58.4844 41.4098 58.7107 41.1349 58.7107Z" fill="#D1D3D4"/>
</g>
<g id="Group_7">
<path id="Vector_5" d="M11.401 58.5367C11.2648 58.5367 11.1299 58.4809 11.0317 58.3704C10.8468 58.1632 10.8622 57.8434 11.0664 57.6557C19.7191 49.6941 35.8251 34.8759 33.2001 0.559822C33.1789 0.281155 33.384 0.0376889 33.6585 0.0161778C33.9353 -0.00288883 34.1727 0.202934 34.1939 0.481601C36.8565 35.2924 20.515 50.3277 11.7356 58.4056C11.6403 58.4932 11.5204 58.5367 11.401 58.5367Z" fill="#D1D3D4"/>
</g>
<g id="Group_8">
<path id="Vector_6" d="M31.915 26.381C31.902 26.381 31.8885 26.3805 31.8755 26.3796C31.6011 26.3576 31.396 26.1141 31.4176 25.8354C31.4229 25.766 31.9189 18.8741 29.0179 15.6592C28.8321 15.4529 28.846 15.1332 29.0487 14.944C29.2519 14.7552 29.5673 14.7694 29.7532 14.9752C32.9478 18.5158 32.435 25.6144 32.4114 25.9146C32.3907 26.1796 32.1726 26.381 31.915 26.381Z" fill="#D1D3D4"/>
</g>
<g id="Group_9">
<path id="Vector_7" d="M27.7979 49.4707C26.5802 49.4707 25.3452 49.1832 24.1916 48.5756L23.7491 48.3424L23.9788 47.8931C24.9456 45.9996 26.5807 44.6023 28.5827 43.958C30.5847 43.3131 32.7143 43.4989 34.5786 44.4811L35.021 44.7143L34.7919 45.1636C33.3936 47.8999 30.6429 49.4707 27.7979 49.4707ZM25.1184 47.9019C28.2302 49.2512 31.8736 48.0783 33.6508 45.1548C32.1399 44.4977 30.4662 44.4131 28.8836 44.9231C27.3005 45.4325 25.9808 46.4812 25.1184 47.9019Z" fill="#D1D3D4"/>
</g>
<g id="Group_10">
<path id="Vector_8" d="M22.1925 25.6467C21.2926 29.0317 22.8511 32.6661 26.0087 34.2692C26.9066 30.8861 25.35 27.2502 22.1925 25.6467Z" fill="#30AB65"/>
</g>
<g id="Group_11">
<path id="Vector_9" d="M25.6721 36.0639L25.2171 35.8566C21.2608 34.0556 19.4856 29.3217 21.2594 25.3045L21.463 24.8425L21.918 25.0498C23.8348 25.9219 25.3014 27.5001 26.0491 29.4933C26.7964 31.4865 26.7353 33.6557 25.8758 35.6019L25.6721 36.0639ZM21.9748 26.2065C20.8246 29.438 22.1848 33.0641 25.1608 34.7004C25.7208 33.1316 25.7087 31.4298 25.1175 29.8541C24.5272 28.2784 23.4207 26.9999 21.9748 26.2065Z" fill="#D1D3D4"/>
</g>
</g>
<g id="Group_12">
<g id="Group_13">
<path id="Vector_10" d="M51.4044 19.3557H50.5975V21.9199H50.233V19.3557H49.426V19.012H51.4044V19.3557ZM54.6588 21.9204H54.2943V19.515L53.3178 21.9204H53.2134L52.2374 19.515V21.9204H51.8729V19.0125H52.4329L53.2658 21.1274L54.0993 19.0125H54.6592V21.9204H54.6588Z" fill="#30AB65"/>
</g>
<g id="Group_14">
<path id="Vector_11" d="M87.9792 21.233H85.3657V25.1994C85.3657 25.9918 85.1351 26.6284 84.6604 27.1461C84.1924 27.6565 83.5655 27.9049 82.7441 27.9049H72.566V20.617H71.2809V29.1555H82.7441C83.7947 29.1555 84.6753 28.8474 85.3662 28.2393V29.1555H87.9797C89.1521 29.1555 90.1131 28.7717 90.8349 28.0149C91.5542 27.2615 91.9182 26.314 91.9182 25.1994C91.9182 24.0925 91.5523 23.1455 90.8301 22.3848C90.1045 21.6207 89.1454 21.233 87.9792 21.233ZM87.9792 27.9054H86.6503V22.4836H87.9792C88.8064 22.4836 89.4347 22.7329 89.8994 23.2458C90.3712 23.7674 90.6004 24.4064 90.6004 25.1998C90.6004 25.9923 90.3698 26.6289 89.895 27.1466C89.4275 27.657 88.8006 27.9054 87.9792 27.9054Z" fill="#30AB65"/>
</g>
<g id="Group_15">
<path id="Vector_12" d="M69.1436 24.8513L68.8056 24.8566V25.1998C68.8056 25.9923 68.575 26.6289 68.1003 27.1466C67.6323 27.657 67.0054 27.9053 66.184 27.9053H62.7568V24.7872H63.9167V23.5366H62.6393C62.4809 22.8527 62.1554 22.2479 61.6696 21.7365C60.9445 20.9719 59.9854 20.5842 58.8192 20.5842H57.123V21.8348H58.8192C59.6469 21.8348 60.2752 22.0841 60.7394 22.597C60.9902 22.8737 61.1708 23.1841 61.2859 23.5366H58.7446C57.5722 23.5366 56.6112 23.9204 55.8894 24.6767C55.1706 25.4306 54.8061 26.3776 54.8061 27.4922C54.8061 28.5991 55.172 29.5461 55.8947 30.3068C56.6198 31.0714 57.5789 31.4586 58.7451 31.4586H60.4413V30.2085H58.7451C57.9174 30.2085 57.2891 29.9592 56.8249 29.4463C56.3531 28.9247 56.1234 28.2857 56.1234 27.4927C56.1234 26.7002 56.3541 26.0632 56.8288 25.546C57.2968 25.0356 57.9237 24.7872 58.7451 24.7872H61.4727V29.1559H66.1845C67.3569 29.1559 68.3174 28.7721 69.0396 28.0153C69.7585 27.262 70.123 26.3145 70.123 25.1998L70.1225 24.8513H69.1436Z" fill="#30AB65"/>
</g>
<g id="Group_16">
<path id="Vector_13" d="M94.4147 21.233H93.1296V29.1554H94.4147V21.233Z" fill="#30AB65"/>
</g>
<g id="Group_17">
<path id="Vector_14" d="M70.123 20.5842H68.5827V22.1482H70.123V20.5842Z" fill="#30AB65"/>
</g>
<g id="Group_18">
<path id="Vector_15" d="M62.9966 29.8951H61.4568V31.4591H62.9966V29.8951Z" fill="#30AB65"/>
</g>
<g id="Group_19">
<path id="Vector_16" d="M96.6016 22.8243H95.4677V21.8935C95.4677 21.0736 94.8109 20.4068 94.0035 20.4068H92.2201V19.2554H94.0035C95.4364 19.2554 96.6016 20.4385 96.6016 21.893V22.8243Z" fill="#30AB65"/>
</g>
<g id="Group_20">
<g id="Group_21">
<path id="Vector_17" d="M71.1028 35.0984H69.2592V38.0298V38.0342C69.2592 38.7431 69.044 39.3322 68.6145 39.801C68.1845 40.2699 67.6005 40.504 66.8614 40.504H65.5114V38.0298H65.508V35.0984H63.6644C62.7871 35.0984 62.0818 35.378 61.5483 35.9378C61.0143 36.4971 60.7476 37.1933 60.7476 38.0254C60.7476 38.0268 60.7476 38.0283 60.7476 38.0298C60.7476 38.0312 60.7476 38.0327 60.7476 38.0342C60.7476 38.7431 60.5324 39.3322 60.1029 39.801C59.6729 40.2699 59.0884 40.504 58.3503 40.504H55.3006V34.5997H54.8071V40.9612H58.3503C59.2275 40.9612 59.9329 40.6815 60.4669 40.1217C61.0008 39.5624 61.2676 38.8663 61.2676 38.0342C61.2676 38.0327 61.2676 38.0312 61.2676 38.0298C61.2676 38.0283 61.2676 38.0268 61.2676 38.0254C61.2676 37.3165 61.4828 36.7274 61.9128 36.259C62.3427 35.7902 62.9268 35.556 63.6654 35.556H65.0159V38.0303H65.0193V40.9612H66.8629C67.7401 40.9612 68.4455 40.6815 68.9795 40.1217C69.0844 40.0117 69.1764 39.8944 69.2607 39.7736V40.9612H71.1042C71.9815 40.9612 72.6869 40.6815 73.2208 40.1217C73.7548 39.5624 74.0215 38.8663 74.0215 38.0342C74.0215 37.208 73.7534 36.5123 73.2165 35.9466C72.6782 35.381 71.9743 35.0984 71.1028 35.0984ZM72.8559 39.8005C72.4259 40.2694 71.8419 40.5036 71.1028 40.5036H69.7522V35.555H71.1028C71.8477 35.555 72.4327 35.7912 72.8602 36.2624C73.2873 36.7347 73.5011 37.3248 73.5011 38.0337C73.5011 38.7431 73.2858 39.3317 72.8559 39.8005Z" fill="#D1D3D4"/>
</g>
<g id="Group_22">
<path id="Vector_18" d="M75.8676 35.0984H74.7669V35.5555H75.8676C76.6119 35.5555 77.1974 35.7916 77.6245 36.2629C78.0516 36.7347 78.2654 37.3253 78.2654 38.0342C78.2654 38.7431 78.0501 39.3322 77.6206 39.801C77.1907 40.2699 76.6062 40.504 75.8681 40.504H74.7674V40.9611H75.8681C76.7453 40.9611 77.4502 40.6815 77.9842 40.1217C78.5181 39.5624 78.7849 38.8663 78.7849 38.0342C78.7849 37.2079 78.5167 36.5123 77.9798 35.9466C77.443 35.381 76.7391 35.0984 75.8676 35.0984Z" fill="#D1D3D4"/>
</g>
<g id="Group_23">
<path id="Vector_19" d="M90.7521 35.3272C91.0915 35.1874 91.3915 34.9835 91.651 34.7117C91.989 34.3572 92.2197 33.947 92.3434 33.4826H91.8065C91.7006 33.8234 91.5292 34.1265 91.287 34.391C90.8571 34.8598 90.273 35.094 89.5339 35.094H88.4338V35.0979V35.555H89.5344C90.2788 35.555 90.8643 35.7907 91.2918 36.2624C91.7189 36.7342 91.9322 37.3248 91.9322 38.0337C91.9322 38.7426 91.717 39.3317 91.2875 39.8C90.8575 40.2689 90.273 40.5031 89.5349 40.5031H88.4342H80.706V34.5987H80.2125V40.9602H88.4342H89.5349C90.4122 40.9602 91.1171 40.6805 91.6515 40.1207C92.185 39.5615 92.4522 38.8658 92.4522 38.0332C92.4522 37.207 92.184 36.5113 91.6472 35.9456C91.3876 35.6738 91.0887 35.4685 90.7521 35.3272Z" fill="#D1D3D4"/>
</g>
<g id="Group_24">
<path id="Vector_20" d="M94.4811 35.0984H93.9876V40.9607H94.4811V35.0984Z" fill="#D1D3D4"/>
</g>
<g id="Group_25">
<path id="Vector_21" d="M96.6016 36.4423H96.1423V35.6885C96.1423 34.896 95.5072 34.2511 94.7267 34.2511H93.2818V33.7847H94.7267C95.7605 33.7847 96.6016 34.6388 96.6016 35.6885V36.4423Z" fill="#D1D3D4"/>
</g>
</g>
</g>
</g>
</g>
</svg>
