<svg width="20" height="20" viewBox="0 0 20 20" fill="none" xmlns="http://www.w3.org/2000/svg">
<g id="parent-fill">
<path id="Vector" d="M5.83329 9.16663C3.76223 9.16663 2.08329 7.48769 2.08329 5.41663C2.08329 3.34556 3.76223 1.66663 5.83329 1.66663C7.90436 1.66663 9.58329 3.34556 9.58329 5.41663C9.58329 7.48769 7.90436 9.16663 5.83329 9.16663ZM14.5833 12.5C12.7424 12.5 11.25 11.0075 11.25 9.16663C11.25 7.32568 12.7424 5.83329 14.5833 5.83329C16.4242 5.83329 17.9166 7.32568 17.9166 9.16663C17.9166 11.0075 16.4242 12.5 14.5833 12.5ZM14.5833 13.3333C16.6544 13.3333 18.3333 15.0122 18.3333 17.0833V17.5H10.8333V17.0833C10.8333 15.0122 12.5122 13.3333 14.5833 13.3333ZM5.83329 9.99996C8.13448 9.99996 9.99996 11.8655 9.99996 14.1666V17.5H1.66663V14.1666C1.66663 11.8655 3.53211 9.99996 5.83329 9.99996Z" fill="#FEC27B"/>
</g>
</svg>
