<svg width="20" height="20" viewBox="0 0 20 20" fill="none" xmlns="http://www.w3.org/2000/svg">
<g id="question-fill">
<path id="Vector" d="M9.99996 18.3333C5.39758 18.3333 1.66663 14.6023 1.66663 9.99996C1.66663 5.39758 5.39758 1.66663 9.99996 1.66663C14.6023 1.66663 18.3333 5.39758 18.3333 9.99996C18.3333 14.6023 14.6023 18.3333 9.99996 18.3333ZM9.16663 12.5V14.1666H10.8333V12.5H9.16663ZM10.8333 11.1292C12.038 10.7706 12.9166 9.65454 12.9166 8.33329C12.9166 6.72246 11.6108 5.41663 9.99996 5.41663C8.58496 5.41663 7.40527 6.42428 7.13938 7.76118L8.77396 8.0881C8.88796 7.51515 9.39354 7.08329 9.99996 7.08329C10.6903 7.08329 11.25 7.64293 11.25 8.33329C11.25 9.02363 10.6903 9.58329 9.99996 9.58329C9.53971 9.58329 9.16663 9.95638 9.16663 10.4166V11.6666H10.8333V11.1292Z" fill="#93CBF5"/>
</g>
</svg>
