<svg width="20" height="20" viewBox="0 0 20 20" fill="none" xmlns="http://www.w3.org/2000/svg">
<g id="shake-hands-fill">
<path id="Vector" d="M16.0761 4.99987H16.6668C17.127 4.99987 17.5001 5.37297 17.5001 5.8332V11.6665C17.5001 12.1267 17.127 12.4998 16.6668 12.4998H15.0001L11.5265 7.63681C11.112 7.05656 10.3744 6.80427 9.69138 7.00916L7.62033 7.63048C7.03305 7.80667 6.39646 7.64618 5.9629 7.21262L5.71893 6.96864C5.34708 6.5968 5.40838 5.97772 5.84593 5.68602L10.3468 2.68543C10.896 2.31936 11.6093 2.31177 12.1661 2.66608L15.6288 4.86958C15.7625 4.95468 15.9177 4.99987 16.0761 4.99987ZM4.18919 11.9122L2.84273 13.0903C2.44988 13.434 2.46617 14.0502 2.87663 14.3728L7.1606 17.7387C7.56066 18.053 8.14656 17.9386 8.39896 17.4968L8.98554 16.4703C9.34388 15.8432 9.25754 15.0568 8.77171 14.5223L6.51993 12.0453C5.90905 11.3733 4.87264 11.3142 4.18919 11.9122ZM5.87127 4.16658H2.49996C2.03973 4.16658 1.66663 4.53968 1.66663 4.99992V11.2631C1.66663 11.6034 1.77058 11.931 1.95845 12.2053C1.97838 12.1864 1.99876 12.1678 2.0196 12.1496L3.36607 10.9714C4.5621 9.92492 6.37582 10.0285 7.44486 11.2045L9.69671 13.6815C10.5469 14.6167 10.698 15.9931 10.0709 17.0905L9.52563 18.0447C9.99471 18.2225 10.5291 18.1824 10.9741 17.9154L14.6485 15.7108C15.0655 15.4606 15.1805 14.9079 14.898 14.5121L10.509 8.36333C10.4054 8.21829 10.221 8.15522 10.0502 8.20644L7.97917 8.82775C6.95143 9.13608 5.83739 8.85525 5.07868 8.0965L4.8347 7.85253C3.90508 6.92291 4.05833 5.37521 5.15222 4.64595L5.87127 4.16658Z" fill="#93CBF5"/>
</g>
</svg>
